<svg enable-background="new 0 0 32 32" viewBox="0 0 32 32" xmlns="http://www.w3.org/2000/svg"><path d="m31 31.36h-30c-.199 0-.36-.161-.36-.36v-30h.72v29.64h29.64zm-17-4h-8v-.72h3.64v-3.28h-3.64c-.199 0-.36-.161-.36-.36v-12c0-.199.161-.36.36-.36h3.64v-3.28h-3.64v-.72h8v.72h-3.64v3.28h3.64c.199 0 .36.161.36.36v12c0 .199-.161.36-.36.36h-3.64v3.279h3.64zm-7.64-4.72h7.28v-5.28h-7.28zm0-6h7.28v-5.28h-7.28zm21.64 6.72h-8v-.72h3.64v-3.28h-3.64c-.199 0-.36-.161-.36-.36v-12c0-.199.161-.36.36-.36h3.64v-3.28h-3.64v-.72h8v.72h-3.64v3.28h3.64c.199 0 .36.161.36.36v12c0 .199-.161.36-.36.36h-3.64v3.279h3.64zm-7.64-4.72h7.279v-5.28h-7.279zm0-6h7.279v-5.28h-7.279z"/><path d="m0 0h32v32h-32z" fill="none"/></svg>